<svg xmlns="http://www.w3.org/2000/svg" width="65" height="64" viewBox="0 0 65 64" fill="none">
  <g clip-path="url(#clip0_112_719)">
    <path d="M52.1 26.7733C51.2043 22.2339 48.7603 18.1463 45.1855 15.2086C41.6107 12.271 37.127 10.6656 32.5 10.6667C24.7933 10.6667 18.1 15.04 14.7667 21.44C10.8473 21.8635 7.22268 23.7205 4.5893 26.6542C1.95592 29.5878 0.499542 33.3911 0.5 37.3333C0.5 46.16 7.67333 53.3333 16.5 53.3333H51.1667C58.5267 53.3333 64.5 47.36 64.5 40C64.5 32.96 59.0333 27.2533 52.1 26.7733ZM51.1667 48H16.5C10.6067 48 5.83333 43.2267 5.83333 37.3333C5.83333 31.8667 9.91333 27.3067 15.3267 26.7467L18.18 26.4533L19.5133 23.92C20.7397 21.5327 22.601 19.5302 24.8923 18.1328C27.1837 16.7354 29.8162 15.9974 32.5 16C39.4867 16 45.5133 20.96 46.8733 27.8133L47.6733 31.8133L51.7533 32.1067C53.758 32.2415 55.6371 33.1306 57.0126 34.5952C58.3881 36.0597 59.1577 37.9909 59.1667 40C59.1667 44.4 55.5667 48 51.1667 48ZM21.8333 34.6667H28.6333V42.6667H36.3667V34.6667H43.1667L32.5 24L21.8333 34.6667Z" fill="#919094"/>
  </g>
  <defs>
    <clipPath id="clip0_112_719">
      <rect width="64" height="64" fill="white" transform="translate(0.5)"/>
    </clipPath>
  </defs>
</svg>