<svg xmlns="http://www.w3.org/2000/svg" width="20" height="25" viewBox="0 0 20 25" fill="none">
  <path d="M3.80059 0.5V4.26038H5.6235V0.5H3.80059ZM14.309 0.5V4.26038H16.1292V0.5H14.309ZM0.0751953 2.30736V7.57188H19.8573V2.30736H17.4326V5.6704H13.0057V2.30736H6.92415V5.6704H2.49995V2.30736H0.0751953ZM0.0751953 8.95416V24.5H19.8573V8.95414L0.0751953 8.95416ZM7.8461 12.5461C8.85307 12.5568 9.80602 13.0809 10.1849 14.0562C10.3631 14.6387 10.4579 15.2598 10.2361 15.8021C9.9584 16.4278 9.39541 16.7535 8.84308 16.9634C9.87968 17.2564 10.5619 17.9626 10.5681 19.1096C10.5514 19.8964 10.2115 20.5933 9.69827 21.0488C9.15257 21.5162 8.49273 21.7772 7.8461 21.782C6.02256 21.782 5.11038 20.8913 5.11038 19.1096H6.72017C6.75438 19.8598 7.08177 20.4303 7.75557 20.4404C8.61211 20.3772 8.95126 19.7675 8.95832 18.9868C8.95793 18.5152 8.79903 18.032 8.42051 17.8502C7.93221 17.6304 7.38709 17.6565 6.91132 17.656V16.2995C7.68905 16.3171 8.7574 16.1684 8.76534 15.164C8.7351 14.4252 8.45596 13.898 7.79397 13.8887C7.08881 13.9348 6.70184 14.3691 6.69456 15.055H5.11038C5.14477 13.3255 6.45619 12.5538 7.8461 12.5461ZM13.4026 12.7135H14.8213V21.6175H13.2865V14.4575C12.6985 15.0021 12.0477 15.39 11.3319 15.6208V14.0978C12.1669 13.747 12.8573 13.2859 13.4026 12.7135Z" fill="#DDB692"/>
</svg>