<svg xmlns="http://www.w3.org/2000/svg" width="23" height="25" viewBox="0 0 23 25" fill="none">
  <path d="M17.7737 12.4761L22.2586 7.73472C22.6981 7.26777 22.6981 6.48952 22.2586 6.04652L17.368 0.850212C16.951 0.383263 16.2186 0.383263 15.7791 0.850212L11.3167 5.61549L6.80915 0.850212C6.59787 0.627503 6.31232 0.502534 6.0147 0.502534C5.71709 0.502534 5.43153 0.627503 5.22026 0.850212L0.329611 6.04652C-0.10987 6.48952 -0.10987 7.26777 0.329611 7.73472L4.81458 12.4761L0.329611 17.2653C-0.10987 17.7322 -0.10987 18.4626 0.329611 18.9535L5.22026 24.1498C5.68227 24.6167 6.36967 24.6167 6.80915 24.1498L11.3167 19.3845L15.7791 24.1498C16.0045 24.3892 16.2862 24.497 16.5792 24.497C16.8722 24.497 17.1539 24.3773 17.3793 24.1498L22.2699 18.9535C22.7094 18.4626 22.7094 17.7322 22.2699 17.2653L17.7737 12.4761ZM11.3167 8.88414C11.6155 8.88414 11.9021 9.01028 12.1135 9.23482C12.3248 9.45936 12.4435 9.7639 12.4435 10.0814C12.4435 10.399 12.3248 10.7035 12.1135 10.9281C11.9021 11.1526 11.6155 11.2787 11.3167 11.2787C11.0178 11.2787 10.7312 11.1526 10.5198 10.9281C10.3085 10.7035 10.1898 10.399 10.1898 10.0814C10.1898 9.7639 10.3085 9.45936 10.5198 9.23482C10.7312 9.01028 11.0178 8.88414 11.3167 8.88414ZM6.00907 11.2309L1.91851 6.89661L6.00907 2.55039L10.0884 6.88463L6.00907 11.2309ZM9.0629 13.6734C8.76404 13.6734 8.47741 13.5472 8.26608 13.3227C8.05475 13.0981 7.93603 12.7936 7.93603 12.4761C7.93603 12.1585 8.05475 11.854 8.26608 11.6294C8.47741 11.4049 8.76404 11.2787 9.0629 11.2787C9.36177 11.2787 9.64839 11.4049 9.85972 11.6294C10.0711 11.854 10.1898 12.1585 10.1898 12.4761C10.1898 12.7936 10.0711 13.0981 9.85972 13.3227C9.64839 13.5472 9.36177 13.6734 9.0629 13.6734ZM11.3167 16.068C11.0178 16.068 10.7312 15.9418 10.5198 15.7173C10.3085 15.4928 10.1898 15.1882 10.1898 14.8707C10.1898 14.5531 10.3085 14.2486 10.5198 14.024C10.7312 13.7995 11.0178 13.6734 11.3167 13.6734C11.6155 13.6734 11.9021 13.7995 12.1135 14.024C12.3248 14.2486 12.4435 14.5531 12.4435 14.8707C12.4435 15.1882 12.3248 15.4928 12.1135 15.7173C11.9021 15.9418 11.6155 16.068 11.3167 16.068ZM13.5704 11.2787C13.8693 11.2787 14.1559 11.4049 14.3672 11.6294C14.5786 11.854 14.6973 12.1585 14.6973 12.4761C14.6973 12.7936 14.5786 13.0981 14.3672 13.3227C14.1559 13.5472 13.8693 13.6734 13.5704 13.6734C13.2715 13.6734 12.9849 13.5472 12.7736 13.3227C12.5623 13.0981 12.4435 12.7936 12.4435 12.4761C12.4435 12.1585 12.5623 11.854 12.7736 11.6294C12.9849 11.4049 13.2715 11.2787 13.5704 11.2787ZM16.5679 22.4616L12.4773 18.1273L16.5679 13.7811L20.6472 18.1154L16.5679 22.4616Z" fill="#84AAFF"/>
</svg>