<svg xmlns="http://www.w3.org/2000/svg" width="25" height="19" viewBox="0 0 25 19" fill="none">
  <path d="M23.5929 1.31257C22.1383 0.651611 20.6826 0.400147 19.2276 0.400147C14.6088 0.39974 9.9904 2.93267 5.3716 2.93267C4.21324 2.93267 3.05564 2.77342 1.89728 2.3753C1.76716 2.33062 1.63666 2.30949 1.50916 2.30949C0.863796 2.30949 0.299805 2.85061 0.299805 3.60175V16.4902C0.299805 17.0033 0.570925 17.4896 1.00629 17.687C2.4609 18.3484 3.91662 18.5999 5.3716 18.5999C9.9904 18.5999 14.6092 16.0669 19.228 16.0669C20.3864 16.0669 21.544 16.2262 22.7023 16.6243C22.8325 16.669 22.9629 16.6901 23.0904 16.6901C23.7358 16.6901 24.2998 16.149 24.2998 15.3978V2.50977C24.2994 1.99628 24.0283 1.51041 23.5929 1.31257ZM2.09978 4.47152C2.85426 4.67627 3.64175 4.77905 4.45174 4.8343C4.23124 6.02825 3.26226 6.92808 2.09978 6.92808V4.47152ZM2.09978 16.0495V14.1084C3.38863 14.1084 4.43149 15.2163 4.48886 16.6028C3.644 16.5292 2.85426 16.3464 2.09978 16.0495ZM12.2996 13.3999C10.6425 13.3999 9.29966 11.6535 9.29966 9.5C9.29966 7.3461 10.6429 5.60006 12.2996 5.60006C13.9563 5.60006 15.2996 7.3461 15.2996 9.5C15.2996 11.6543 13.956 13.3999 12.2996 13.3999ZM22.4995 14.5285C21.8425 14.3501 21.1604 14.2502 20.4625 14.1856C20.6826 13.1261 21.4937 12.3218 22.4995 12.1836V14.5285ZM22.4995 4.93667C21.3411 4.77783 20.4422 3.73013 20.4066 2.43624C21.1394 2.52439 21.835 2.68933 22.4995 2.95054V4.93667Z" fill="#5EDCB3"/>
</svg>