<svg xmlns="http://www.w3.org/2000/svg" width="25" height="25" viewBox="0 0 25 25" fill="none">
  <path d="M20.8394 1.53228C19.9766 1.02646 19.024 0.698114 18.0361 0.565992C17.0482 0.43387 16.0444 0.500561 15.0819 0.762255C14.1194 1.02395 13.2171 1.47552 12.4265 2.09119C11.636 2.70685 10.9727 3.47455 10.4744 4.35044L10.1892 4.85263C10.0927 5.02225 10.0666 5.22383 10.1165 5.41301C10.1665 5.6022 10.2884 5.7635 10.4555 5.86144L16.0345 9.13157L12.9773 14.5626C12.7436 14.5408 12.5091 14.5299 12.2744 14.5301C9.38308 14.5301 6.86859 16.1917 5.24028 18.5963L5.29412 18.5934C5.76749 18.5741 6.23417 18.7117 6.62373 18.9853C7.01328 19.259 7.30455 19.6538 7.45356 20.1103C7.95995 21.6641 9.75559 21.5548 10.2096 20.2137C10.3571 19.7768 10.6354 19.3976 11.0056 19.1291C11.3758 18.8607 11.8195 18.7163 12.2744 18.7163C12.7294 18.7163 13.1731 18.8607 13.5433 19.1291C13.9135 19.3976 14.1918 19.7768 14.3393 20.2137C14.7918 21.5548 16.5889 21.6641 17.0953 20.1103C17.2472 19.6452 17.5467 19.2443 17.9469 18.9704C18.3471 18.6965 18.8254 18.5649 19.3072 18.5963C18.111 16.8283 16.4362 15.4636 14.4834 14.8639L17.2947 9.87008L22.3368 12.8241C22.5039 12.9221 22.7025 12.9486 22.8888 12.8979C23.0752 12.8472 23.2341 12.7234 23.3306 12.5538L23.6173 12.0516C24.6231 10.2828 24.8955 8.18077 24.3746 6.20803C23.8536 4.23529 22.582 2.55339 20.8394 1.53228ZM6.07263 20.5741C6.02276 20.4221 5.92559 20.2908 5.79575 20.1998C5.66592 20.1088 5.51046 20.0631 5.35281 20.0696C5.19516 20.0761 5.04387 20.1344 4.92174 20.2358C4.7996 20.3372 4.71325 20.4761 4.67569 20.6317C4.42831 21.6567 3.95976 22.2195 3.42572 22.5459C2.86695 22.8886 2.15538 23.0215 1.36087 23.0215C1.16791 23.0215 0.982848 23.0993 0.846402 23.2378C0.709955 23.3763 0.633301 23.5641 0.633301 23.76C0.633301 23.9559 0.709955 24.1437 0.846402 24.2822C0.982848 24.4207 1.16791 24.4985 1.36087 24.4985C2.28925 24.4985 3.30058 24.3479 4.17803 23.8117C4.70108 23.491 5.14188 23.0491 5.46438 22.5223C7.20036 24.7688 10.5894 24.7585 12.2744 22.4986C13.9871 24.7939 17.4548 24.7688 19.1645 22.4144C19.6288 23.0562 20.2343 23.5789 20.9329 23.941C21.6314 24.3031 22.4037 24.4945 23.188 24.5C23.381 24.5 23.566 24.4222 23.7025 24.2837C23.8389 24.1452 23.9156 23.9574 23.9156 23.7615C23.9156 23.5656 23.8389 23.3778 23.7025 23.2393C23.566 23.1008 23.381 23.023 23.188 23.023C21.7576 23.023 20.3316 22.0777 19.8601 20.5829C19.813 20.4349 19.7211 20.3058 19.5975 20.2139C19.4738 20.122 19.3248 20.0721 19.1715 20.0713C19.0183 20.0705 18.8687 20.1188 18.7442 20.2093C18.6196 20.2999 18.5263 20.428 18.4777 20.5755C17.5421 23.4395 13.8795 23.4026 12.9627 20.6937C12.9136 20.5481 12.8208 20.4217 12.6974 20.3322C12.574 20.2427 12.4261 20.1946 12.2744 20.1946C12.1228 20.1946 11.9749 20.2427 11.8515 20.3322C11.7281 20.4217 11.6353 20.5481 11.5862 20.6937C10.6694 23.4026 7.00683 23.4395 6.07117 20.5755L6.07263 20.5741Z" fill="#FF8D55"/>
</svg>